<svg version="1.2" xmlns="http://www.w3.org/2000/svg" viewBox="0 0 418 117" width="418" height="117"><style>tspan{white-space:pre}.a{fill:#fff;stroke:#fff;paint-order:stroke fill markers;stroke-linejoin:round;stroke-width:4}.b{font-size: 21px;fill: #fefefe;font-weight: 700;font-family: "OpenSans-Bold", "Open Sans"}</style><path fill-rule="evenodd" class="a" d="m22.3 78.4c-2 0.2-3.1-1.4-3.2-3-0.1-1.3 0.7-2.9 2.7-3 1.3-0.1 1.8 0.5 1.9 1.3 0.2 1.7-1.4 4.7-1.4 4.7zm2.2-24c1.9-0.2 2.2 3.5 0.2 3.6-3.9 0.3-4.1-3.4-0.2-3.6zm8.6-14.1c0.7-0.3 1.2-0.1 1.8 0.3 0.7 0.5 0.6 1.8-0.1 2.2-0.7 0.4-1.2 0.5-1.9 0.1-1-0.6-0.9-2.1 0.2-2.6zm-7.7-12.5c0.1-0.3 0.2-0.7 0.5-1 0-0.1 0.7-0.6 0.6-0.5 1-1.1 2.5 0.1 2.2 1.3 0 0.6-0.1 1-0.6 1.5-1 1-3 0.3-2.7-1.3zm31.4 58.2c-1.7 1.5-4.4 0.9-5.2-1.3q-0.2-0.6-0.3-1.4c-0.1-1.9 1.6-3.3 3.4-3q0.7 0.2 1.4 0.5c2 1 2.3 3.7 0.7 5.2zm-3.4-20.7c1.3-2.4 5.2-0.4 3.9 2.1-1.3 2.6-5.3 0.5-3.9-2.1zm12.3-8c-1-1.5 0.3-3.2 2-3 1.3 0.1 2 1.1 2.2 2.3 0.1 0.8-0.5 1.5-1.1 1.7-1.3 0.5-2.4 0-3.1-1zm-4.1-28.9q0.3 0 0.5 0.1 0.1 0.1 0.2 0.2 0 0 0 0 0.1 0.1 0.1 0.2 0 0 0 0 0.1 0.1 0.1 0.3c0.3 1.5-0.5 4.3-0.5 4.3-2.1 0.1-3.2-1.3-3.1-2.6-0.1-0.9 0.4-1.9 1.7-2.3q0.5-0.2 1-0.2zm-59.5 36.9c-0.9-18.4 6.5-64.8 33.6-59.2 0.1-0.3 0.3-0.6 0.7-0.9 10.6-6.8 28-2 35.9 7 10.6 12.1 15 32.6 15.6 48.2 0.7 16-2.1 36-15.2 46.9-6.3 5.3-14.9 7.7-22.5 5.8-0.2 0.5-0.6 0.8-1.2 1-28.7 6.8-45.8-24.8-46.9-48.8zm38.1-57c10.7 8.6 12.4 23 10.1 36.2-3.4 20-19.6 44.8-3.2 62.2 11.6 4.8 24-2.6 29.4-13.8 5.5-11.2 6.3-24.9 5.2-37.2-2.1-21.1-13.9-56.7-41.5-47.4zm-22.2 88.9c6.1 8.4 14.3 11.6 23.7 12.4-10.5-4.2-7.8-25.6-6-33.6 5.1-21.9 19.5-46.9 2.9-67.1q-0.1 0-0.3 0.1c-1.1 0.4-2.1-0.2-2.5-1.1-24.6 2.9-30.1 38.7-28.7 58.7 0.7 10.8 4.6 21.8 10.9 30.6z"/><text style="transform:matrix(3.4,0,0,3.4,109.644,84.388)" ><tspan x="0" y="0" class="b" dx="0" >C</tspan><tspan  y="0" class="b" dx="0" >O</tspan><tspan  y="0" class="b" dx="0" >F</tspan><tspan  y="0" class="b" dx="0" >F</tspan><tspan  y="0" class="b" dx="0" >E</tspan><tspan  y="0" class="b" dx="0" >N</tspan><tspan  y="0" class="b" dx="0" >A</tspan><tspan  y="0" class="b" dx="0" > </tspan><tspan  y="0" class="b" dx="0" >
</tspan></text></svg>